<svg width="212" height="60" viewBox="0 0 212 60" fill="none" xmlns="http://www.w3.org/2000/svg">
<path d="M32.9347 20.1852V31.5259C32.9347 33.5906 31.695 35.3504 29.9665 36.0269C30.3811 36.5861 30.6274 37.2705 30.6274 38.0135C30.6274 43.5117 27.6593 48.4156 23.2091 51.1178H24.175C26.4861 51.1178 28.3632 52.9988 28.3632 55.3099C28.3632 57.621 26.4822 59.4981 24.175 59.4981H6.45625C4.1451 59.4981 2.26412 57.6171 2.26412 55.3099C2.26412 53.0027 4.1451 51.1178 6.45625 51.1178H7.42216C2.96802 48.4195 -9.15527e-05 43.5156 -9.15527e-05 38.0174C-9.15527e-05 36.1833 1.49374 34.6895 3.3278 34.6895C3.4021 34.6895 3.48031 34.6934 3.55461 34.7012V17.9445C1.63452 16.4976 0.563029 14.1473 0.563029 11.2652C0.563029 6.89714 3.14009 3.23294 7.2892 1.7C8.56404 1.22682 9.91709 0.992188 11.3093 0.992188C14.6958 0.992188 17.8125 2.64636 19.8225 5.3642C20.7337 4.96923 21.7231 4.75806 22.732 4.75806C23.0331 4.75806 23.3381 4.77761 23.6432 4.81672C27.3035 5.27425 30.0643 8.39879 30.0643 12.0943C30.0643 13.287 29.7788 14.4406 29.247 15.4652C31.3431 15.8914 32.9347 17.8467 32.9347 20.1891" fill="#FFF9F3"/>
<path d="M12.85 19.5625H19.0522C19.2438 19.5625 19.3533 19.7346 19.2438 19.8597L16.3813 22.9999C16.2678 23.125 16.3813 23.2971 16.5729 23.2971H20.2957C20.4913 23.2971 20.6007 23.477 20.4795 23.5982L13.3427 30.7936C13.2098 30.9305 12.936 30.8601 12.9243 30.6881L12.5372 24.044C12.5293 23.9462 12.4277 23.8641 12.3025 23.8641H10.3394C10.1635 23.8641 10.0501 23.7155 10.1322 23.5943L12.6428 19.6681C12.6819 19.6055 12.764 19.5664 12.85 19.5664" fill="#101820"/>
<path d="M28.3906 17.719H24.742V16.671C25.0001 16.5576 25.2543 16.4246 25.4929 16.2643C26.8929 15.3336 27.7297 13.7771 27.7297 12.0956C27.7297 9.58111 25.8487 7.44986 23.3577 7.13701C23.1504 7.10964 22.9393 7.09791 22.732 7.09791C21.2773 7.09791 19.9633 7.7236 19.0483 8.72079C17.746 5.53759 14.7154 3.32812 11.3093 3.32812C10.1908 3.32812 9.11152 3.51583 8.1026 3.89125C4.89594 5.07615 2.90155 7.90348 2.90155 11.2666C2.90155 14.3716 4.36019 15.9358 5.88922 16.6279V37.7763C5.88922 42.9734 10.1165 47.2007 15.3137 47.2007C20.5108 47.2007 24.7381 42.9734 24.7381 37.7763V33.9987H28.3867C29.6029 33.9987 30.5922 32.8881 30.5922 31.5272V20.1866C30.5922 18.8218 29.6029 17.7151 28.3867 17.7151L28.3906 17.719ZM8.46237 40.6779C8.30204 40.2947 8.17299 39.8958 8.07522 39.4852L13.7964 33.764H15.3762L8.46628 40.674L8.46237 40.6779ZM7.87579 36.5836V33.7679H10.6914L7.87579 36.5836ZM9.64727 42.5941L18.4773 33.764H20.0572L10.4333 43.3879C10.1517 43.1416 9.88973 42.8756 9.64727 42.5941ZM16.569 45.1125L22.6421 39.0394C22.1141 42.1365 19.6661 44.5846 16.569 45.1125ZM22.7516 35.8014L13.5461 45.0069C13.1316 44.9052 12.7288 44.7684 12.3456 44.6002L22.7516 34.1942V35.7975V35.8014ZM22.7516 32.2585H7.87579V17.0972H22.7516V32.2585V32.2585ZM24.3901 14.6101C23.8974 14.9347 23.3225 15.1107 22.7281 15.1107H7.9931C7.473 15.1107 4.88812 14.9269 4.88812 11.2705C4.88812 8.7599 6.38586 6.64819 8.79477 5.75658C9.5847 5.46329 10.4294 5.3186 11.3132 5.3186C14.4064 5.3186 17.1986 7.88002 17.6678 11.1493L17.6796 11.2275C17.7187 11.5168 17.7382 11.8101 17.7382 12.0995H19.7248C19.7248 10.4375 21.0739 9.08838 22.7359 9.08838C22.8611 9.08838 22.9862 9.0962 23.1152 9.11185C24.6169 9.29955 25.751 10.5822 25.751 12.0995C25.751 13.1124 25.2465 14.0509 24.4018 14.614L24.3901 14.6101ZM28.6213 31.535C28.6213 31.8596 28.4414 32.0199 28.3984 32.0199H24.7499V19.7056H28.3984C28.4414 19.7056 28.6213 19.8659 28.6213 20.1905V31.5311V31.535Z" fill="#101820"/>
<path d="M28.2928 38.0167C28.2928 37.4692 27.847 37.0234 27.2995 37.0234C26.7521 37.0234 26.3062 37.4692 26.3062 38.0167C26.3062 44.0781 21.375 49.0093 15.3137 49.0093C9.25229 49.0093 4.32107 44.0781 4.32107 38.0167C4.32107 37.4692 3.87526 37.0234 3.32779 37.0234C2.78031 37.0234 2.3345 37.4692 2.3345 38.0167C2.3345 44.8367 7.62549 50.4445 14.3204 50.9529V53.4556H6.45624C5.43167 53.4556 4.59872 54.2886 4.59872 55.3131C4.59872 56.3377 5.43167 57.1707 6.45624 57.1707H24.1711C25.1957 57.1707 26.0286 56.3377 26.0286 55.3131C26.0286 54.2886 25.1957 53.4556 24.1711 53.4556H16.3069V50.9529C23.0018 50.4445 28.2928 44.8367 28.2928 38.0167" fill="#101820"/>
<g opacity="0.05">
<g opacity="0.05">
<path opacity="0.05" d="M23.7448 16.0938V37.7739C23.7448 42.4314 19.9711 46.2051 15.3137 46.2051C14.7075 46.2051 14.117 46.1425 13.55 46.0213C13.55 46.0213 27.0414 27.5048 20.2801 16.0938H23.7448V16.0938Z" fill="#03035B"/>
</g>
</g>
<g opacity="0.05">
<g opacity="0.05">
<path opacity="0.05" d="M26.7365 12.0825C26.7365 13.4786 26.0248 14.7065 24.9415 15.4221C22.8142 15.954 20.6556 16.0674 19.5723 16.0869C19.1187 16.0947 18.8528 16.0869 18.8528 16.0869C18.9779 16.0635 29.1102 13.987 23.2326 8.10938C25.2074 8.35574 26.7365 10.0412 26.7365 12.0825" fill="#03035B"/>
</g>
</g>
<path d="M64.1918 43.6694C64.1918 46.9152 61.1064 49.9732 57.8371 49.9732C55.3774 49.9732 53.3204 48.8626 52.3467 46.9973C51.2127 49.0269 49.6132 50.0553 47.6384 50.0553C44.7446 50.0553 42.5547 48.19 42.5547 45.7264C42.5547 45.4018 42.582 44.9951 42.6915 44.4007C43.0709 44.4554 43.4228 44.4828 43.7474 44.4828C45.3429 44.4828 46.2345 43.861 46.696 42.4806L47.8848 39.0197C47.0479 39.3169 46.2619 39.4538 45.5032 39.4538C43.3407 39.4538 41.9055 38.0734 41.9055 35.993C41.9055 31.531 47.7205 28.2031 55.5377 28.2031C61.7868 28.2031 65.627 30.3657 65.627 33.8813C65.627 36.3958 63.5974 38.613 60.6488 39.3443C62.6784 39.751 64.1918 41.6164 64.1918 43.6733V43.6694ZM56.3199 30.5807L56.4293 30.0685C56.0226 30.0137 55.5925 29.9863 55.0215 29.9863C50.8842 29.9863 47.3959 33.6662 47.3959 36.4505C47.3959 37.1818 47.6931 37.6667 48.2602 37.8857C49.9652 32.8802 52.4523 30.3657 56.3199 30.5807ZM56.6992 40.4549C56.6992 39.3717 56.0774 38.4527 55.2132 38.2103L53.7506 43.9158C53.3713 45.4292 53.5355 46.2973 54.0478 46.2973C55.1584 46.2973 56.6992 42.9147 56.6992 40.4549V40.4549ZM58.4589 32.2858C58.4589 31.0422 57.9975 30.3109 57.2154 30.2562L55.35 37.5846C56.8126 37.6393 58.4589 34.8511 58.4589 32.2818" fill="#101820"/>
<path d="M74.5509 34.6406L73.4676 38.997C72.7364 41.9729 72.4939 43.1617 72.4939 43.9204C72.4939 44.4874 72.6308 44.7573 72.928 44.7573C73.8743 44.7573 75.1453 40.8623 76.2285 34.6406H84.0183C82.5323 38.997 82.0709 41.4294 82.0709 42.5126C82.0709 43.2712 82.2586 43.7288 82.72 43.7288C83.2597 43.7288 84.0457 43.2673 85.0468 39.7791H86.3178C85.1837 46.1885 82.2625 50.2203 78.8799 50.2203C76.6899 50.2203 75.7983 48.5153 75.7983 46.3801C75.7983 45.5706 75.9352 44.7025 76.1503 43.8383H75.638C74.5274 47.8974 72.1772 50.06 69.4984 50.06C67.0621 50.06 65.361 48.3276 65.361 45.8405C65.361 44.679 65.7404 43.4589 66.4443 42.2975L65.2281 41.4333L67.0387 34.6445H74.5587L74.5509 34.6406Z" fill="#101820"/>
<path d="M94.9171 34.5239L93.6188 38.8255H92.6177C92.211 39.7993 91.8864 41.2618 91.8864 42.1261C91.8864 43.1545 92.2657 43.6942 92.9696 43.6942C93.8886 43.6942 94.5104 42.5327 95.3238 39.7719H96.5947C96.2428 41.5043 95.9456 42.6931 95.621 43.6394C94.3774 47.3466 91.4015 49.9706 88.4529 49.9706C86.7753 49.9706 85.477 49.3489 84.3429 47.9958C85.129 46.9673 85.8837 45.2389 86.2083 43.6668H83.9089L85.3167 38.8255H83.9636L85.2619 34.5239C87.3736 34.5239 88.9418 33.253 90.1853 30.5469H93.9199L92.6764 34.5239H94.921H94.9171Z" fill="#101820"/>
<path d="M94.7568 47.6753C95.4333 46.6195 96.0825 45.1608 96.3797 43.6709H93.8104C93.8652 41.1017 94.5691 38.3174 96.1372 36.5576C97.5998 34.9074 99.817 33.9062 102.222 33.9062C106.305 33.9062 108.499 35.9358 108.499 38.5051C108.499 41.7508 106.039 43.7804 102.332 43.7804C101.897 43.7804 101.467 43.753 101.033 43.6983C101.194 45.1608 102.167 45.9977 103.872 45.9977C106.711 45.9977 109.202 43.4285 110.176 39.776H111.447C109.879 49.1614 104.252 50.6747 100.924 50.6747C97.5958 50.6747 95.4881 48.7547 94.7568 47.6714V47.6753ZM101.33 42.0168C102.844 42.0168 103.739 39.3928 103.739 37.9576C103.739 37.3906 103.602 37.0112 103.333 37.0112C102.496 37.0112 101.303 39.7721 101.115 41.9894C101.197 42.0168 101.252 42.0168 101.33 42.0168Z" fill="#101820"/>
<path d="M119.288 37.0425C119.288 37.3124 119.26 37.5822 119.206 37.8794H119.667L121.153 34.6884H124.778L122.479 42.6659H117.45C117.856 41.3676 118.314 39.6626 118.314 38.6068C118.314 37.9576 118.154 37.5509 117.747 37.5509C116.855 37.5509 115.96 39.8229 115.96 42.0129C115.96 44.0424 116.718 45.9899 118.963 45.9899C121.802 45.9899 124.293 43.4207 125.267 39.7682H126.538C124.97 49.1535 119.342 50.6669 116.179 50.6669C112.636 50.6669 110.579 48.8563 109.633 47.5033C110.254 46.4748 110.876 44.934 111.146 43.6631H108.686C108.929 38.3604 111.228 33.8984 115.936 33.8984C117.966 33.8984 119.292 35.1694 119.292 37.0347" fill="#101820"/>
<path d="M143.686 39.7722C142.954 43.8549 141.144 48.8878 138.086 48.8878C137.437 48.8878 136.815 48.6727 136.275 48.2934C134.84 49.619 132.568 50.5107 130.648 50.5107C128.106 50.5107 126.076 49.5369 124.751 47.6716C125.588 46.3733 126.076 45.1571 126.374 43.6672H123.804C124.047 37.77 127.59 33.7656 132.595 33.7656C136.842 33.7656 139.494 36.1745 139.494 40.0421C139.494 41.1253 139.278 42.3141 138.872 43.585C139.196 43.8823 139.63 43.8823 139.791 43.8823C140.549 43.8823 141.414 43.2605 142.415 39.7722H143.686V39.7722ZM135.626 37.1756C135.356 36.9606 135.059 36.8511 134.707 36.8511C132.869 36.8511 130.812 40.8007 130.812 44.2616C130.812 45.5325 131.191 46.209 131.786 46.209C132.38 46.209 133.166 45.4504 133.463 44.5314C133.276 44.0191 133.166 43.2878 133.166 42.5018C133.166 40.0695 134.14 37.9577 135.626 37.1717" fill="#101820"/>
<path d="M163.919 30.6085C163.919 31.7973 162.945 32.9079 161.08 32.9079C160.865 32.9079 160.646 32.8805 160.403 32.8532L157.697 42.7547C156.696 46.4072 154.94 50.1105 149.935 50.1105C145.715 50.1105 143.361 47.9753 143.361 45.0268C143.361 42.5123 145.172 39.9978 147.69 39.9978C149.286 39.9978 149.935 40.8894 149.935 41.9179C149.935 42.2698 149.853 42.6491 149.72 43.0011L150.342 43.1653L152.477 35.6453C153.098 33.428 154.182 31.723 155.75 31.7778L155.859 31.4806C155.155 31.2655 154.506 31.156 153.939 31.156C151.452 31.156 150.232 33.0761 150.232 34.7537C150.232 35.5906 150.529 36.3492 151.069 36.8107L150.283 39.2978C149.931 39.3799 149.606 39.4073 149.309 39.4073C145.657 39.4073 143.764 36.623 143.764 33.8074C143.764 30.9917 145.711 28.0745 149.743 28.0745C152.746 28.0745 154.694 29.6973 157.506 30.9683C158.831 31.5627 159.723 31.7778 160.669 31.7778C161.831 31.7778 162.535 31.2929 162.48 30.6945C162.073 31.0191 161.479 31.1795 160.775 31.1795C159.477 31.1795 157.799 30.6398 156.176 29.5839C156.935 28.4733 158.475 27.8516 160.126 27.8516C162.64 27.8516 163.911 29.2594 163.911 30.6124L163.919 30.6085ZM149.927 44.1351C149.739 43.9983 149.548 43.9201 149.36 43.9201C148.331 43.9201 147.522 46.0552 147.522 47.3262C147.522 47.8384 147.659 48.2178 147.983 48.2178C148.793 48.2178 149.552 45.7815 149.931 44.1351" fill="#101820"/>
<path d="M174.466 38.5012C174.466 41.7469 172.006 43.7765 168.299 43.7765C167.865 43.7765 167.435 43.7491 167 43.6944C167.161 45.1569 168.135 45.9938 169.84 45.9938C172.679 45.9938 175.17 43.4246 176.143 39.7721H177.414C175.846 49.1575 170.137 50.6708 166.813 50.6708C161.404 50.6708 159.59 46.5335 159.59 43.1508C159.59 40.9062 160.376 38.3369 161.917 36.5498C163.379 34.8722 165.569 33.8984 168.193 33.8984C172.276 33.8984 174.47 35.928 174.47 38.4973L174.466 38.5012ZM167.302 42.0129C168.815 42.0129 169.711 39.3889 169.711 37.9537C169.711 37.3867 169.574 37.0073 169.304 37.0073C168.467 37.0073 167.274 39.7682 167.087 41.9855C167.169 42.0129 167.223 42.0129 167.302 42.0129Z" fill="#101820"/>
<path d="M185.259 37.0425C185.259 37.3124 185.232 37.5822 185.177 37.8794H185.638L187.124 34.6884H190.749L188.45 42.6659H183.421C183.828 41.3676 184.285 39.6626 184.285 38.6068C184.285 37.9576 184.125 37.5509 183.718 37.5509C182.827 37.5509 181.931 39.8229 181.931 42.0129C181.931 44.0424 182.69 45.9899 184.934 45.9899C187.773 45.9899 190.264 43.4207 191.238 39.7682H192.509C190.941 49.1535 185.314 50.6669 182.15 50.6669C178.607 50.6669 176.55 48.8563 175.604 47.5033C176.225 46.4748 176.847 44.934 177.117 43.6631H174.657C174.9 38.3604 177.199 33.8984 181.908 33.8984C183.937 33.8984 185.263 35.1694 185.263 37.0347" fill="#101820"/>
<path d="M202.082 29.4149C200.295 33.1221 197.89 38.069 196.646 42.9377H197.483C198.672 38.3936 200.674 34.2015 204.436 34.2015C207.06 34.2015 208.034 35.7148 208.034 37.4472C208.034 39.1796 206.818 41.2874 206.818 42.7773C206.818 43.3991 207.088 43.7237 207.576 43.7237C208.116 43.7237 208.902 43.2622 209.903 39.774H211.174C210.04 46.1834 207.092 50.2152 203.818 50.2152C201.464 50.2152 199.599 48.6197 199.599 45.6438C199.599 43.9388 199.896 42.3432 201.034 39.774C200.952 39.5863 200.792 39.3947 200.549 39.3947C199.548 39.3947 198.332 44.2086 197.468 49.5113H189.975L189.596 48.8074C190.597 47.861 191.653 45.7767 192.11 43.6689H190.053L192.54 35.1752L191.567 33.9864L193.272 28.6328H201.304L202.09 29.4188L202.082 29.4149Z" fill="#101820"/>
</svg>
